<?xml version="1.0" encoding="utf-8"?>
<!-- Generator: Adobe Illustrator 21.1.0, SVG Export Plug-In . SVG Version: 6.00 Build 0)  -->
<svg version="1.1" id="Layer_1" xmlns="http://www.w3.org/2000/svg" xmlns:xlink="http://www.w3.org/1999/xlink" x="0px" y="0px"
	 viewBox="0 0 76 28.2" style="enable-background:new 0 0 76 28.2;" xml:space="preserve">
<style type="text/css">
	.st0{clip-path:url(#SVGID_2_);fill:#FFFFFF;}
</style>
<g>
	<defs>
		<rect id="SVGID_1_" y="0" width="76" height="28.2"/>
	</defs>
	<clipPath id="SVGID_2_">
		<use xlink:href="#SVGID_1_"  style="overflow:visible;"/>
	</clipPath>
	<path class="st0" d="M45.8,28.3c-1,0-1.8-0.8-1.8-1.8c0-1,0.8-1.8,1.8-1.8c1,0,1.8,0.8,1.8,1.8C47.7,27.5,46.9,28.3,45.8,28.3z
		 M45.8,24.8c-0.9,0-1.7,0.8-1.7,1.7c0,0.9,0.8,1.7,1.7,1.7c1,0,1.7-0.8,1.7-1.7C47.6,25.5,46.8,24.8,45.8,24.8z M72.8,11.5
		c-1,0-1.8-0.8-1.8-1.8c0-1,0.8-1.8,1.8-1.8c1,0,1.8,0.8,1.8,1.8C74.7,10.7,73.8,11.5,72.8,11.5z M72.8,7.9c-0.9,0-1.7,0.8-1.7,1.7
		c0,0.9,0.8,1.7,1.7,1.7c1,0,1.7-0.8,1.7-1.7C74.6,8.7,73.8,7.9,72.8,7.9z M65.6,21.7c-1,0-1.8-0.8-1.8-1.8c0-1,0.8-1.8,1.8-1.8
		c1,0,1.8,0.8,1.8,1.8C67.4,20.9,66.6,21.7,65.6,21.7z M65.6,18.1c-0.9,0-1.7,0.8-1.7,1.7c0,0.9,0.8,1.7,1.7,1.7
		c1,0,1.7-0.8,1.7-1.7C67.3,18.9,66.5,18.1,65.6,18.1z M50.2,22.1L50.2,22.1l-5.6-11.4c-0.9-1.8-1.9-2.2-2.4-2.4L42,8.2h8.6
		l-0.4,0.1c-0.8,0.2-1.5,0.5-1.5,1.4c0,0.3,0.1,0.7,0.4,1.3l3.2,7.2l0,0L50.2,22.1z M42.4,8.3c0.5,0.3,1.4,0.8,2.2,2.4v0l5.5,11.2
		l2-3.8L49,11c-0.3-0.6-0.4-1-0.4-1.3c0-0.9,0.7-1.3,1.2-1.4H42.4z M55.8,11.4l0.1-0.4c0.1-0.3,0.1-0.6,0.1-0.9
		c0-1.3-0.9-1.6-1.7-1.8l-0.4-0.1h5.5l-0.3,0.1c-0.9,0.3-2,0.8-3,2.7L55.8,11.4z M54.8,8.3c0.7,0.2,1.4,0.7,1.4,1.8
		c0,0.2,0,0.4,0,0.6C57,9.1,58,8.6,58.8,8.3H54.8z M69.5,22.3l0.4-0.1c1.3-0.4,2.1-1.5,2.1-2.8c0-1.8-1.6-2.5-3.9-3.5
		c-2.2-1-4.3-1.9-4.3-4.1c0-2.4,2.3-4,5.6-4.1l0.4,0l-0.4,0.1c-1,0.3-2,1.2-2,2.6c0,1.6,1.2,2.2,3.8,3.3c2.5,1.1,4.8,2.1,4.8,4.5
		c0,2.8-3.1,4-6.1,4.1L69.5,22.3z M69.1,7.7c-3.1,0.2-5.2,1.8-5.2,4c0,2,1.7,2.9,4.3,4.1c2.2,1,3.9,1.7,3.9,3.6
		c0,1.2-0.7,2.3-1.9,2.7c2.8-0.2,5.6-1.3,5.6-4c0-2.3-2.3-3.3-4.7-4.4c-2.4-1.1-3.8-1.7-3.8-3.4C67.4,9,68.2,8.1,69.1,7.7z
		 M22.6,23.7V2.9c0-1-0.7-1.8-1.8-2.1l-0.3-0.1l5.9-0.8V22l0,0C26.5,22,24.5,22.1,22.6,23.7L22.6,23.7z M21.1,0.7
		c1,0.3,1.6,1.1,1.6,2.1v20.6c1.6-1.4,3.4-1.6,3.7-1.6V0.1L21.1,0.7z M30.2,22.3v-0.1l0,0c2.5-0.4,3.2-4.7,3.2-7.1
		c0-2.4-0.7-6.7-3.2-7.1l0,0V7.8l0.1,0c4.1,0.2,7.3,3.4,7.3,7.2C37.6,18.9,34.4,22.1,30.2,22.3L30.2,22.3z M30.7,8
		c0.9,0.3,1.7,1.2,2.2,2.7c0.4,1.2,0.7,2.9,0.7,4.5c0,1.6-0.3,3.2-0.7,4.5c-0.5,1.4-1.2,2.3-2.2,2.7c3.9-0.4,6.8-3.4,6.8-7.1
		C37.5,11.4,34.5,8.4,30.7,8z M8.8,22.3v-0.1l0,0c2.5-0.4,3.2-4.7,3.2-7.1c0-2.4-0.7-6.7-3.2-7.1l0,0V7.8l0.1,0
		c4.1,0.2,7.3,3.4,7.3,7.2C16.2,18.9,13,22.1,8.8,22.3L8.8,22.3z M9.3,8c0.9,0.3,1.7,1.2,2.2,2.7c0.4,1.2,0.7,2.9,0.7,4.5
		c0,1.6-0.3,3.2-0.7,4.5c-0.5,1.4-1.2,2.3-2.2,2.7c3.9-0.4,6.8-3.4,6.8-7.1C16.1,11.4,13.1,8.4,9.3,8z M7.3,22.3L7.3,22.3
		C3.2,22.1,0,18.9,0,15.1c0-3.9,3.2-7,7.3-7.2l0.1,0V8l0,0c-2.5,0.4-3.2,4.7-3.2,7.1s0.7,6.7,3.2,7.1l0,0V22.3z M6.9,8
		C3,8.4,0,11.4,0,15.1c0,3.7,3,6.7,6.8,7.1c-0.9-0.3-1.7-1.2-2.2-2.7C4.3,18.3,4,16.7,4,15.1c0-1.6,0.3-3.2,0.7-4.5
		C5.2,9.2,5.9,8.3,6.9,8z"/>
</g>
</svg>
