<?xml version="1.0" encoding="utf-8"?>
<!-- Generator: Adobe Illustrator 21.1.0, SVG Export Plug-In . SVG Version: 6.00 Build 0)  -->
<svg version="1.1" id="Layer_1" xmlns="http://www.w3.org/2000/svg" xmlns:xlink="http://www.w3.org/1999/xlink" x="0px" y="0px"
	 viewBox="0 0 76 28.2" style="enable-background:new 0 0 76 28.2;" xml:space="preserve">
<style type="text/css">
	.st0{clip-path:url(#SVGID_2_);fill:#FFFFFF;}
</style>
<g>
	<defs>
		<rect id="SVGID_1_" y="0" width="76" height="28.2"/>
	</defs>
	<clipPath id="SVGID_2_">
		<use xlink:href="#SVGID_1_"  style="overflow:visible;"/>
	</clipPath>
	<path class="st0" d="M44.1,26.5c0-1,0.8-1.8,1.8-1.8c1,0,1.8,0.8,1.8,1.8c0,1-0.8,1.8-1.8,1.8C44.9,28.2,44.1,27.5,44.1,26.5"/>
	<path class="st0" d="M71.1,9.7c0-1,0.8-1.8,1.8-1.8c1,0,1.8,0.8,1.8,1.8c0,1-0.8,1.8-1.8,1.8C71.9,11.4,71.1,10.6,71.1,9.7"/>
	<path class="st0" d="M63.8,19.9c0-1,0.8-1.8,1.8-1.8c1,0,1.8,0.8,1.8,1.8c0,1-0.8,1.8-1.8,1.8C64.6,21.6,63.8,20.8,63.8,19.9"/>
	<path class="st0" d="M44.6,10.7c-0.9-1.7-1.9-2.2-2.4-2.4h8c-0.6,0.2-1.5,0.4-1.5,1.5c0,0.3,0.1,0.7,0.4,1.3l3.2,7.1l-2,3.9
		L44.6,10.7z"/>
	<path class="st0" d="M56.1,10.1c0-1.3-1-1.7-1.7-1.9h4.7C58.2,8.5,57.1,9,56,11C56.1,10.7,56.1,10.4,56.1,10.1"/>
	<path class="st0" d="M72.1,19.4c0-1.8-1.6-2.5-3.9-3.6c-2.4-1.1-4.3-2-4.3-4.1c0-2.2,2.1-3.9,5.6-4c-1.1,0.3-2,1.3-2,2.7
		c0,1.7,1.3,2.3,3.8,3.4c2.4,1.1,4.7,2.1,4.7,4.4c0,2.8-3.1,3.9-6,4C71.2,21.8,72.1,20.7,72.1,19.4"/>
	<path class="st0" d="M22.7,2.9c0-1.1-0.7-1.9-1.8-2.2L26.5,0v22c0,0-2,0.1-3.8,1.6V2.9z"/>
	<path class="st0" d="M37.5,15.1c0-3.8-3.2-7-7.3-7.2v0c2.4,0.4,3.2,4.5,3.2,7.2c0,2.7-0.8,6.7-3.2,7.2v0
		C34.3,22.1,37.5,18.9,37.5,15.1"/>
	<path class="st0" d="M16.1,15.1c0-3.8-3.2-7-7.3-7.2v0c2.4,0.4,3.2,4.5,3.2,7.2c0,2.7-0.8,6.7-3.2,7.2v0
		C12.9,22.1,16.1,18.9,16.1,15.1"/>
	<path class="st0" d="M0,15.1c0-3.8,3.2-7,7.3-7.2v0c-2.4,0.4-3.2,4.5-3.2,7.2c0,2.7,0.8,6.7,3.2,7.2v0C3.2,22.1,0,18.9,0,15.1"/>
</g>
</svg>
