<?xml version="1.0" encoding="utf-8"?>
<!-- Generator: Adobe Illustrator 21.1.0, SVG Export Plug-In . SVG Version: 6.00 Build 0)  -->
<svg version="1.1" id="Layer_1" xmlns="http://www.w3.org/2000/svg" xmlns:xlink="http://www.w3.org/1999/xlink" x="0px" y="0px"
	 viewBox="0 0 76 28.2" style="enable-background:new 0 0 76 28.2;" xml:space="preserve">
<style type="text/css">
	.st0{clip-path:url(#SVGID_2_);fill:#FFFFFF;}
</style>
<g>
	<defs>
		<rect id="SVGID_1_" y="0" width="76" height="28.2"/>
	</defs>
	<clipPath id="SVGID_2_">
		<use xlink:href="#SVGID_1_"  style="overflow:visible;"/>
	</clipPath>
	<path class="st0" d="M16.1,15.1c0-3.8-3.2-7-7.3-7.2v0c2.4,0.4,3.2,4.5,3.2,7.2c0,2.7-0.8,6.7-3.2,7.2v0
		C12.9,22.1,16.1,18.9,16.1,15.1"/>
	<path class="st0" d="M0,15.1c0-3.8,3.2-7,7.3-7.2v0c-2.4,0.4-3.2,4.5-3.2,7.2c0,2.7,0.8,6.7,3.2,7.2v0C3.2,22.1,0,18.9,0,15.1"/>
</g>
</svg>
