<?xml version="1.0" encoding="utf-8"?>
<!-- Generator: Adobe Illustrator 21.1.0, SVG Export Plug-In . SVG Version: 6.00 Build 0)  -->
<svg version="1.1" id="Layer_1" xmlns="http://www.w3.org/2000/svg" xmlns:xlink="http://www.w3.org/1999/xlink" x="0px" y="0px"
	 viewBox="0 0 76 28.2" style="enable-background:new 0 0 76 28.2;" xml:space="preserve">
<style type="text/css">
	.st0{clip-path:url(#SVGID_2_);fill:#FFFFFF;}
</style>
<g>
	<defs>
		<rect id="SVGID_1_" y="0" width="76" height="28.2"/>
	</defs>
	<clipPath id="SVGID_2_">
		<use xlink:href="#SVGID_1_"  style="overflow:visible;"/>
	</clipPath>
	<path class="st0" d="M71.1,9.7c0-1,0.8-1.8,1.8-1.8c1,0,1.8,0.8,1.8,1.8c0,1-0.8,1.8-1.8,1.8C71.9,11.4,71.1,10.6,71.1,9.7"/>
	<path class="st0" d="M63.8,19.9c0-1,0.8-1.8,1.8-1.8c1,0,1.8,0.8,1.8,1.8c0,1-0.8,1.8-1.8,1.8C64.6,21.6,63.8,20.8,63.8,19.9"/>
	<path class="st0" d="M72.1,19.4c0-1.8-1.6-2.5-3.9-3.6c-2.4-1.1-4.3-2-4.3-4.1c0-2.2,2.1-3.9,5.6-4c-1.1,0.3-2,1.3-2,2.7
		c0,1.7,1.3,2.3,3.8,3.4c2.4,1.1,4.7,2.1,4.7,4.4c0,2.8-3.1,3.9-6,4C71.2,21.8,72.1,20.7,72.1,19.4"/>
</g>
</svg>
