<?xml version="1.0" encoding="utf-8"?>
<!-- Generator: Adobe Illustrator 21.1.0, SVG Export Plug-In . SVG Version: 6.00 Build 0)  -->
<svg version="1.1" id="Layer_1" xmlns="http://www.w3.org/2000/svg" xmlns:xlink="http://www.w3.org/1999/xlink" x="0px" y="0px"
	 viewBox="0 0 76 28.2" style="enable-background:new 0 0 76 28.2;" xml:space="preserve">
<style type="text/css">
	.st0{clip-path:url(#SVGID_2_);fill:#FFFFFF;}
</style>
<g>
	<defs>
		<rect id="SVGID_1_" y="0" width="76" height="28.2"/>
	</defs>
	<clipPath id="SVGID_2_">
		<use xlink:href="#SVGID_1_"  style="overflow:visible;"/>
	</clipPath>
	<path class="st0" d="M44.1,26.5c0-1,0.8-1.8,1.8-1.8c1,0,1.8,0.8,1.8,1.8c0,1-0.8,1.8-1.8,1.8C44.9,28.2,44.1,27.5,44.1,26.5"/>
	<path class="st0" d="M44.6,10.7c-0.9-1.7-1.9-2.2-2.4-2.4h8c-0.6,0.2-1.5,0.4-1.5,1.5c0,0.3,0.1,0.7,0.4,1.3l3.2,7.1l-2,3.9
		L44.6,10.7z"/>
	<path class="st0" d="M56.1,10.1c0-1.3-1-1.7-1.7-1.9h4.7C58.2,8.5,57.1,9,56,11C56.1,10.7,56.1,10.4,56.1,10.1"/>
</g>
</svg>
